<svg viewBox="104.733126 105.155418 160 160" xmlns="http://www.w3.org/2000/svg" style="fill-rule:evenodd;clip-rule:evenodd;stroke-linejoin:round;stroke-miterlimit:2;">
<g><circle cx="144.733" cy="137.155" r="9" style="fill:url(#_Radial1);"/><circle cx="224.733" cy="137.155" r="9" style="fill:url(#_Radial2);"/><path d="M184.733,155.229c-4.644,4.726 -12.213,8.977 -25.044,15.392l-35.378,17.689l-7.155,-14.311l35.378,-17.689c6.867,-3.434 12.026,-5.993 15.888,-8.404c2.753,-1.718 4.705,-3.189 5.928,-5.168c1.223,-1.979 1.665,-4.383 1.971,-7.613c0.429,-4.533 0.412,-10.292 0.412,-17.97l16,0c0,7.678 -0.018,13.436 0.412,17.97c0.306,3.23 0.748,5.634 1.971,7.613c1.223,1.979 3.175,3.45 5.928,5.168c3.863,2.411 9.021,4.971 15.888,8.404l35.378,17.689l-7.155,14.311l-35.378,-17.689c-12.831,-6.416 -20.4,-10.666 -25.044,-15.392Z" style="fill:url(#_Radial3);"/><circle cx="144.733" cy="201.155" r="9" style="fill:url(#_Radial4);"/><circle cx="224.733" cy="201.155" r="9" style="fill:url(#_Radial5);"/><path d="M184.733,219.229c-4.644,4.726 -12.213,8.977 -25.044,15.392l-35.378,17.689l-7.155,-14.311l35.378,-17.689c6.867,-3.434 12.026,-5.993 15.888,-8.404c2.753,-1.718 4.705,-3.189 5.928,-5.168c1.223,-1.979 1.665,-4.383 1.971,-7.613c0.429,-4.533 0.412,-10.292 0.412,-17.97l16,0c0,7.678 -0.018,13.436 0.412,17.97c0.306,3.23 0.748,5.634 1.971,7.613c1.223,1.979 3.175,3.45 5.928,5.168c3.863,2.411 9.021,4.971 15.888,8.404l35.378,17.689l-7.155,14.311l-35.378,-17.689c-12.831,-6.416 -20.4,-10.666 -25.044,-15.392Z" style="fill:url(#_Radial6);"/></g>
<defs><radialGradient id="_Radial1" cx="0" cy="0" r="1" gradientUnits="userSpaceOnUse" gradientTransform="matrix(48,-108,108,48,184.733126,213.155418)"><stop offset="0" style="stop-color:#002bff;stop-opacity:1"/><stop offset="1" style="stop-color:#9ff;stop-opacity:1"/></radialGradient><radialGradient id="_Radial2" cx="0" cy="0" r="1" gradientUnits="userSpaceOnUse" gradientTransform="matrix(48,-108,108,48,184.733126,213.155418)"><stop offset="0" style="stop-color:#002bff;stop-opacity:1"/><stop offset="1" style="stop-color:#9ff;stop-opacity:1"/></radialGradient><radialGradient id="_Radial3" cx="0" cy="0" r="1" gradientUnits="userSpaceOnUse" gradientTransform="matrix(48,-108,108,48,184.733126,213.155418)"><stop offset="0" style="stop-color:#002bff;stop-opacity:1"/><stop offset="1" style="stop-color:#9ff;stop-opacity:1"/></radialGradient><radialGradient id="_Radial4" cx="0" cy="0" r="1" gradientUnits="userSpaceOnUse" gradientTransform="matrix(48,-108,108,48,184.733126,213.155418)"><stop offset="0" style="stop-color:#002bff;stop-opacity:1"/><stop offset="1" style="stop-color:#9ff;stop-opacity:1"/></radialGradient><radialGradient id="_Radial5" cx="0" cy="0" r="1" gradientUnits="userSpaceOnUse" gradientTransform="matrix(48,-108,108,48,184.733126,213.155418)"><stop offset="0" style="stop-color:#002bff;stop-opacity:1"/><stop offset="1" style="stop-color:#9ff;stop-opacity:1"/></radialGradient><radialGradient id="_Radial6" cx="0" cy="0" r="1" gradientUnits="userSpaceOnUse" gradientTransform="matrix(48,-108,108,48,184.733126,213.155418)"><stop offset="0" style="stop-color:#002bff;stop-opacity:1"/><stop offset="1" style="stop-color:#9ff;stop-opacity:1"/></radialGradient></defs>
</svg>
