<?xml version="1.0" encoding="UTF-8" standalone="no"?><!DOCTYPE svg PUBLIC "-//W3C//DTD SVG 1.1//EN" "http://www.w3.org/Graphics/SVG/1.1/DTD/svg11.dtd"><svg width="100%" height="100%" viewBox="0 0 1196 370" version="1.1" xmlns="http://www.w3.org/2000/svg" xmlns:xlink="http://www.w3.org/1999/xlink" xml:space="preserve" xmlns:serif="http://www.serif.com/" style="fill-rule:evenodd;clip-rule:evenodd;stroke-linejoin:round;stroke-miterlimit:2;"><rect id="logo_dark" x="0" y="0" width="1195.5" height="369.5" style="fill:none;"/><g><circle cx="144.733" cy="137.155" r="9" style="fill:url(#_Radial1);"/><circle cx="224.733" cy="137.155" r="9" style="fill:url(#_Radial2);"/><path d="M184.733,155.229c-4.644,4.726 -12.213,8.977 -25.044,15.392l-35.378,17.689l-7.155,-14.311l35.378,-17.689c6.867,-3.434 12.026,-5.993 15.888,-8.404c2.753,-1.718 4.705,-3.189 5.928,-5.168c1.223,-1.979 1.665,-4.383 1.971,-7.613c0.429,-4.533 0.412,-10.292 0.412,-17.97l16,0c0,7.678 -0.018,13.436 0.412,17.97c0.306,3.23 0.748,5.634 1.971,7.613c1.223,1.979 3.175,3.45 5.928,5.168c3.863,2.411 9.021,4.971 15.888,8.404l35.378,17.689l-7.155,14.311l-35.378,-17.689c-12.831,-6.416 -20.4,-10.666 -25.044,-15.392Z" style="fill:url(#_Radial3);"/><circle cx="144.733" cy="201.155" r="9" style="fill:url(#_Radial4);"/><circle cx="224.733" cy="201.155" r="9" style="fill:url(#_Radial5);"/><path d="M184.733,219.229c-4.644,4.726 -12.213,8.977 -25.044,15.392l-35.378,17.689l-7.155,-14.311l35.378,-17.689c6.867,-3.434 12.026,-5.993 15.888,-8.404c2.753,-1.718 4.705,-3.189 5.928,-5.168c1.223,-1.979 1.665,-4.383 1.971,-7.613c0.429,-4.533 0.412,-10.292 0.412,-17.97l16,0c0,7.678 -0.018,13.436 0.412,17.97c0.306,3.23 0.748,5.634 1.971,7.613c1.223,1.979 3.175,3.45 5.928,5.168c3.863,2.411 9.021,4.971 15.888,8.404l35.378,17.689l-7.155,14.311l-35.378,-17.689c-12.831,-6.416 -20.4,-10.666 -25.044,-15.392Z" style="fill:url(#_Radial6);"/></g><g><path d="M323.154,148.365l0,-13.209l88.535,0l0,13.209l-36.719,0l0,103.946l-14.939,0l0,-103.946l-36.876,0Z" style="fill:#fff;"/><path d="M455.013,254.198c-7.968,0 -14.952,-1.887 -20.954,-5.661c-6.002,-3.774 -10.68,-9.068 -14.035,-15.883c-3.355,-6.814 -5.032,-14.73 -5.032,-23.746c0,-9.173 1.677,-17.18 5.032,-24.021c3.355,-6.841 8.033,-12.148 14.035,-15.922c6.002,-3.774 12.987,-5.661 20.954,-5.661c8.02,0 15.044,1.887 21.072,5.661c6.028,3.774 10.72,9.082 14.074,15.922c3.355,6.841 5.032,14.848 5.032,24.021c0,9.016 -1.677,16.931 -5.032,23.746c-3.355,6.814 -8.046,12.109 -14.074,15.883c-6.028,3.774 -13.052,5.661 -21.072,5.661Zm0,-12.659c5.923,0 10.798,-1.52 14.625,-4.56c3.827,-3.04 6.657,-7.037 8.492,-11.991c1.835,-4.954 2.752,-10.313 2.752,-16.079c0,-5.818 -0.917,-11.231 -2.752,-16.237c-1.835,-5.006 -4.665,-9.042 -8.492,-12.109c-3.827,-3.066 -8.701,-4.6 -14.625,-4.6c-5.871,0 -10.693,1.533 -14.468,4.6c-3.774,3.066 -6.579,7.09 -8.413,12.069c-1.835,4.98 -2.752,10.405 -2.752,16.276c0,5.766 0.917,11.126 2.752,16.079c1.835,4.954 4.639,8.95 8.413,11.991c3.774,3.04 8.597,4.56 14.468,4.56Z" style="fill:#fff;"/><path d="M515.793,252.311l0,-87.906l13.681,0l0,13.524l0.944,0c1.625,-4.432 4.521,-7.99 8.688,-10.675c4.167,-2.686 8.872,-4.028 14.114,-4.028l3.735,0c1.442,0 2.582,0.026 3.42,0.079l0,14.31c-0.419,-0.105 -1.468,-0.262 -3.145,-0.472c-1.677,-0.21 -3.46,-0.315 -5.347,-0.315c-4.193,0 -7.955,0.878 -11.283,2.634c-3.329,1.756 -5.936,4.167 -7.823,7.234c-1.887,3.066 -2.831,6.592 -2.831,10.575l0,55.039l-14.153,0Z" style="fill:#fff;"/><path d="M609.517,254.198c-7.968,0 -14.952,-1.887 -20.954,-5.661c-6.002,-3.774 -10.68,-9.068 -14.035,-15.883c-3.355,-6.814 -5.032,-14.73 -5.032,-23.746c0,-9.173 1.677,-17.18 5.032,-24.021c3.355,-6.841 8.033,-12.148 14.035,-15.922c6.002,-3.774 12.987,-5.661 20.954,-5.661c4.246,0 8.256,0.55 12.03,1.651c3.774,1.101 7.221,2.686 10.34,4.757c3.119,2.071 5.805,4.613 8.059,7.627c2.254,3.014 3.984,6.434 5.189,10.261l-13.603,3.853c-0.629,-2.254 -1.599,-4.325 -2.909,-6.212c-1.31,-1.887 -2.896,-3.525 -4.757,-4.914c-1.861,-1.389 -3.997,-2.464 -6.408,-3.224c-2.411,-0.76 -5.058,-1.14 -7.941,-1.14c-5.871,0 -10.693,1.533 -14.468,4.6c-3.774,3.066 -6.579,7.09 -8.413,12.069c-1.835,4.98 -2.752,10.405 -2.752,16.276c0,5.766 0.917,11.126 2.752,16.079c1.835,4.954 4.639,8.95 8.413,11.991c3.774,3.04 8.597,4.56 14.468,4.56c2.935,0 5.635,-0.393 8.099,-1.179c2.464,-0.786 4.652,-1.9 6.565,-3.342c1.913,-1.442 3.525,-3.158 4.836,-5.15c1.31,-1.992 2.28,-4.167 2.909,-6.526l13.524,3.853c-1.153,3.931 -2.87,7.43 -5.15,10.497c-2.28,3.066 -4.993,5.687 -8.138,7.863c-3.145,2.175 -6.631,3.827 -10.457,4.954c-3.827,1.127 -7.889,1.69 -12.187,1.69Z" style="fill:#fff;"/><path d="M679.889,179.601c2.397,-4.978 5.398,-8.706 9.003,-11.186c4.954,-3.407 10.759,-5.111 17.416,-5.111c5.923,0 11.126,1.219 15.608,3.656c4.482,2.437 7.968,6.107 10.457,11.008c2.49,4.901 3.735,11.073 3.735,18.517l0,55.826l-14.232,0l0,-54.646c0,-6.762 -1.769,-12.056 -5.307,-15.883c-3.538,-3.827 -8.374,-5.74 -14.507,-5.74c-4.193,0 -7.968,0.917 -11.322,2.752c-3.355,1.835 -6.002,4.508 -7.941,8.02c-1.939,3.512 -2.909,7.784 -2.909,12.816l0,52.681l-14.153,0l0,-117.155l14.153,0l0,44.445Z" style="fill:#fff;"/></g><g><path d="M762.684,252.311l0,-117.155l70.844,0l0,13.209l-55.904,0l0,40.1l50.558,0l0,13.209l-50.558,0l0,50.636l-14.939,0Z" style="fill:#3d7bf5;"/><path d="M885.422,254.198c-7.968,0 -14.952,-1.887 -20.954,-5.661c-6.002,-3.774 -10.68,-9.068 -14.035,-15.883c-3.355,-6.814 -5.032,-14.73 -5.032,-23.746c0,-9.173 1.677,-17.18 5.032,-24.021c3.355,-6.841 8.033,-12.148 14.035,-15.922c6.002,-3.774 12.987,-5.661 20.954,-5.661c8.02,0 15.044,1.887 21.072,5.661c6.028,3.774 10.72,9.082 14.074,15.922c3.355,6.841 5.032,14.848 5.032,24.021c0,9.016 -1.677,16.931 -5.032,23.746c-3.355,6.814 -8.046,12.109 -14.074,15.883c-6.028,3.774 -13.052,5.661 -21.072,5.661Zm0,-12.659c5.923,0 10.798,-1.52 14.625,-4.56c3.827,-3.04 6.657,-7.037 8.492,-11.991c1.835,-4.954 2.752,-10.313 2.752,-16.079c0,-5.818 -0.917,-11.231 -2.752,-16.237c-1.835,-5.006 -4.665,-9.042 -8.492,-12.109c-3.827,-3.066 -8.701,-4.6 -14.625,-4.6c-5.871,0 -10.693,1.533 -14.468,4.6c-3.774,3.066 -6.579,7.09 -8.413,12.069c-1.835,4.98 -2.752,10.405 -2.752,16.276c0,5.766 0.917,11.126 2.752,16.079c1.835,4.954 4.639,8.95 8.413,11.991c3.774,3.04 8.597,4.56 14.468,4.56Z" style="fill:#3d7bf5;"/><path d="M959.804,180.789c2.483,-5.576 5.667,-9.701 9.553,-12.374c4.954,-3.407 10.759,-5.111 17.416,-5.111c5.923,0 11.113,1.219 15.568,3.656c4.456,2.437 7.928,6.107 10.418,11.008c2.49,4.901 3.735,11.073 3.735,18.517l0,55.826l-14.153,0l0,-54.646c0,-6.762 -1.769,-12.056 -5.307,-15.883c-3.538,-3.827 -8.374,-5.74 -14.507,-5.74c-4.193,0 -7.968,0.917 -11.322,2.752c-3.355,1.835 -6.002,4.508 -7.941,8.02c-1.939,3.512 -2.909,7.784 -2.909,12.816l0,52.681l-14.153,0l0,-87.906l13.603,0l0,16.384Z" style="fill:#3d7bf5;"/><path d="M1043.7,176.514l-13.209,0l0,-12.109l13.209,0l0,-20.915l14.153,0l0,20.915l18.084,0l0,12.109l-18.084,0l0,52.995c0,3.931 0.799,6.801 2.398,8.61c1.599,1.808 4.259,2.713 7.981,2.713c0.891,0 2.031,-0.105 3.42,-0.315c1.389,-0.21 2.66,-0.419 3.813,-0.629l2.909,11.951c-1.468,0.524 -3.132,0.917 -4.993,1.179c-1.861,0.262 -3.709,0.393 -5.543,0.393c-7.601,0 -13.524,-2.005 -17.77,-6.015c-4.246,-4.01 -6.369,-9.606 -6.369,-16.787l0,-54.096Z" style="fill:#3d7bf5;"/></g><defs><radialGradient id="_Radial1" cx="0" cy="0" r="1" gradientUnits="userSpaceOnUse" gradientTransform="matrix(48,-108,108,48,184.733126,213.155418)"><stop offset="0" style="stop-color:#002bff;stop-opacity:1"/><stop offset="1" style="stop-color:#9ff;stop-opacity:1"/></radialGradient><radialGradient id="_Radial2" cx="0" cy="0" r="1" gradientUnits="userSpaceOnUse" gradientTransform="matrix(48,-108,108,48,184.733126,213.155418)"><stop offset="0" style="stop-color:#002bff;stop-opacity:1"/><stop offset="1" style="stop-color:#9ff;stop-opacity:1"/></radialGradient><radialGradient id="_Radial3" cx="0" cy="0" r="1" gradientUnits="userSpaceOnUse" gradientTransform="matrix(48,-108,108,48,184.733126,213.155418)"><stop offset="0" style="stop-color:#002bff;stop-opacity:1"/><stop offset="1" style="stop-color:#9ff;stop-opacity:1"/></radialGradient><radialGradient id="_Radial4" cx="0" cy="0" r="1" gradientUnits="userSpaceOnUse" gradientTransform="matrix(48,-108,108,48,184.733126,213.155418)"><stop offset="0" style="stop-color:#002bff;stop-opacity:1"/><stop offset="1" style="stop-color:#9ff;stop-opacity:1"/></radialGradient><radialGradient id="_Radial5" cx="0" cy="0" r="1" gradientUnits="userSpaceOnUse" gradientTransform="matrix(48,-108,108,48,184.733126,213.155418)"><stop offset="0" style="stop-color:#002bff;stop-opacity:1"/><stop offset="1" style="stop-color:#9ff;stop-opacity:1"/></radialGradient><radialGradient id="_Radial6" cx="0" cy="0" r="1" gradientUnits="userSpaceOnUse" gradientTransform="matrix(48,-108,108,48,184.733126,213.155418)"><stop offset="0" style="stop-color:#002bff;stop-opacity:1"/><stop offset="1" style="stop-color:#9ff;stop-opacity:1"/></radialGradient></defs></svg>